<svg xmlns="http://www.w3.org/2000/svg" viewBox="0 0 1200 800" fill="none">
  <defs>
    <pattern id="paws2" x="0" y="0" width="200" height="200" patternUnits="userSpaceOnUse">
      <path d="M40 60c-2-8 2-18 8-22s14-2 18 4c2 4 2 10-2 14l-8 8c-4 4-10 6-16 2-6-2-2-6 0-6zm0 0c2-2 4-4 8-4" stroke="#0D9488" stroke-width="1.2" stroke-linecap="round" opacity="0.35"/>
      <circle cx="38" cy="52" r="3" fill="#0D9488" opacity="0.3"/>
      <circle cx="48" cy="48" r="3.5" fill="#0D9488" opacity="0.25"/>
      <circle cx="36" cy="44" r="2.5" fill="#0D9488" opacity="0.35"/>
      <circle cx="32" cy="54" r="3" fill="#0D9488" opacity="0.2"/>
      <path d="M160 140c-2-8 2-18 8-22s14-2 18 4c2 4 2 10-2 14l-8 8c-4 4-10 6-16 2-6-2-2-6 0-6zm0 0c2-2 4-4 8-4" stroke="#0D9488" stroke-width="1.2" stroke-linecap="round" opacity="0.3"/>
      <circle cx="158" cy="132" r="3" fill="#0D9488" opacity="0.25"/>
      <circle cx="168" cy="128" r="3.5" fill="#0D9488" opacity="0.2"/>
      <circle cx="156" cy="124" r="2.5" fill="#0D9488" opacity="0.3"/>
    </pattern>
    <linearGradient id="vetGradA" x1="0" y1="0" x2="1" y2="1">
      <stop offset="0%" stop-color="#0D9488" stop-opacity="0.12"/>
      <stop offset="100%" stop-color="#06B6D4" stop-opacity="0.06"/>
    </linearGradient>
    <linearGradient id="vetGradB" x1="1" y1="0" x2="0" y2="1">
      <stop offset="0%" stop-color="#14B8A6" stop-opacity="0.10"/>
      <stop offset="100%" stop-color="#0D9488" stop-opacity="0.04"/>
    </linearGradient>
  </defs>
  <rect width="1200" height="800" fill="url(#vetGradA)"/>
  <rect width="1200" height="800" fill="url(#vetGradB)"/>
  <rect width="1200" height="800" fill="url(#paws2)"/>
  <!-- Dog silhouette -->
  <g opacity="0.12">
    <ellipse cx="950" cy="500" rx="140" ry="95" fill="#0D9488" transform="rotate(-10 950 500)"/>
    <circle cx="1030" cy="420" r="55" fill="#0D9488"/>
    <ellipse cx="1070" cy="410" rx="35" ry="22" fill="#0D9488" transform="rotate(30 1070 410)"/>
    <ellipse cx="1110" cy="435" rx="28" ry="20" fill="#0D9488" transform="rotate(-20 1110 435)"/>
  </g>
  <!-- Cat silhouette -->
  <g opacity="0.10">
    <ellipse cx="230" cy="360" rx="90" ry="70" fill="#14B8A6"/>
    <circle cx="180" cy="305" r="38" fill="#14B8A6"/>
    <path d="M165 278 L155 248 L178 272" fill="#14B8A6"/>
    <path d="M198 278 L212 248 L188 272" fill="#14B8A6"/>
  </g>
  <!-- Vet cross -->
  <g transform="translate(80, 580) scale(1.2)" opacity="0.12">
    <rect x="0" y="20" width="16" height="60" rx="4" fill="#0D9488"/>
    <rect x="0" y="20" width="16" height="60" rx="4" fill="#0D9488" transform="rotate(90 8 50)"/>
  </g>
  <!-- Stethoscope -->
  <path d="M480 620c25-50 75-75 125-50" stroke="#0D9488" stroke-width="4" stroke-linecap="round" opacity="0.12"/>
  <circle cx="620" cy="570" r="25" stroke="#0D9488" stroke-width="4" opacity="0.10"/>
</svg>