<svg xmlns="http://www.w3.org/2000/svg" viewBox="0 0 200 200" fill="none">
  <circle cx="100" cy="100" r="96" fill="url(#bgGrad)" opacity="0.15"/>
  <defs><linearGradient id="bgGrad" x1="0" y1="0" x2="1" y2="1"><stop offset="0%" stop-color="#059669"/><stop offset="100%" stop-color="#10B981"/></linearGradient></defs>
  <!-- Bowl -->
  <g opacity="0.85">
    <ellipse cx="95" cy="115" rx="45" ry="30" fill="#047857" opacity="0.6"/>
    <ellipse cx="95" cy="110" rx="45" ry="8" fill="#065F46" opacity="0.8"/>
    <rect x="50" y="95" width="90" height="20" rx="5" fill="#047857" opacity="0.9"/>
    <ellipse cx="95" cy="95" rx="45" ry="10" fill="#059669" opacity="0.7"/>
  </g>
  <!-- Meat pieces in bowl -->
  <g opacity="0.8">
    <ellipse cx="78" cy="105" rx="12" ry="7" fill="#B91C1C" opacity="0.8" transform="rotate(-15 78 105)"/>
    <ellipse cx="110" cy="100" rx="14" ry="6" fill="#DC2626" opacity="0.7" transform="rotate(10 110 100)"/>
    <ellipse cx="95" cy="108" rx="10" ry="5" fill="#F59E0B" opacity="0.7"/>
  </g>
  <!-- Herbs and spices -->
  <g opacity="0.6">
    <path d="M60 98l-3-8M68 95l2-6M120 96l4-7M130 100l-2-8" stroke="#4ADE80" stroke-width="2" stroke-linecap="round"/>
    <circle cx="65" cy="102" r="2.5" fill="#F59E0B"/>
    <circle cx="125" cy="98" r="2" fill="#F97316"/>
    <circle cx="80" cy="92" r="1.5" fill="#F59E0B"/>
    <!-- Dots of seasoning -->
    <circle cx="88" cy="97" r="1.5" fill="#FCD34D" opacity="0.6"/>
    <circle cx="100" cy="93" r="1" fill="#FCD34D" opacity="0.6"/>
  </g>
  <!-- Wooden spoon -->
  <g opacity="0.8" transform="translate(40, 45) rotate(35)">
    <rect x="0" y="0" width="6" height="50" rx="3" fill="#78350F"/>
    <ellipse cx="3" cy="55" rx="10" ry="8" fill="#78350F"/>
  </g>
  <!-- Marinade drip -->
  <g opacity="0.5">
    <path d="M145 125c3-5 6-8 8-5s3 8 0 12-5 8-8 0z" fill="#B91C1C"/>
    <ellipse cx="145" cy="140" rx="4" ry="6" fill="#DC2626" opacity="0.4"/>
  </g>
</svg>